<svg xmlns="http://www.w3.org/2000/svg" viewBox="0 0 35.35 7.87"><defs><style>.cls-1{fill:#d9e4d7;}</style></defs><title>linea</title><g id="Capa_2" data-name="Capa 2"><g id="cositas"><rect class="cls-1" x="1.1" y="1.27" width="33.33" height="5.33" rx="2.67" ry="2.67"/><path class="cls-1" d="M21.26,7.36l-.18-.06S21.13,7.35,21.26,7.36Z"/><path class="cls-1" d="M25.07.49h0Z"/><path class="cls-1" d="M14,5.4h0Z"/><path class="cls-1" d="M23.53,5.56c-2.5-.07-3.16-.34-5.74-.23-1.24,0-2.55,0-3.76.07-.57.21-1.58,0-2.26.18l-.26-.12a1.56,1.56,0,0,1-.74,0v0c-.35.09-.74,0-.91.09v0l-.42,0,.07,0a7.74,7.74,0,0,1-1.79,0l0,.15c-1.18-.16-1.61.14-2.68,0l0,0a3.18,3.18,0,0,1-.92.13l-.42,0-.27-.07c-.34-.12-.58-.3-1-.48.11,0,0-.09,0-.11-.31-.26-.44-.68-.72-.63-.06-.34,0-.29.15-.34-.12,0-.2-.29-.14-.55a.69.69,0,0,0,0,.13,2.12,2.12,0,0,1,.22-.73A1.33,1.33,0,0,0,1.8,3c.28-.36.28,0,.48-.31l-.15-.13a1.49,1.49,0,0,1,1.43-.26h1l1.18,0,2.36-.1a27.32,27.32,0,0,1,4.54.06l.12.14c.06.22.79-.31.9-.11L14,2.1c.1,0,.29.08.13.13a1.21,1.21,0,0,0,.54-.1l.33.14c1.21.1,2.24-.16,3.52-.1A29.73,29.73,0,0,0,24.64,2a16.52,16.52,0,0,1,3.7.1c.64.07,1.28.13,1.91.15.31,0,.62,0,.93,0a6.22,6.22,0,0,0,.8-.07s.19,0,.19,0a1.79,1.79,0,0,1,1.12.87,1.79,1.79,0,0,1,.25,1,2.08,2.08,0,0,1-.88,1.63c-.48.36-1,.46-.87.71s.3.29.85.3A2.79,2.79,0,0,0,34.9,5.39v.08a2.75,2.75,0,0,0-.31-3.42c.07-.15-.11-.43-.38-.66s-.6-.4-.74-.54h.05c-.48-.14-.92-.33-1.41-.43l-.37,0-.27,0a1.6,1.6,0,0,0-.54.05.21.21,0,0,1,.2-.11c-.51,0-1.22.1-1.25-.06a18,18,0,0,0-3.73.23l.05-.05c-.45.18-.58,0-1.08.12,0,0-.06,0-.06,0a10.56,10.56,0,0,1-1.82.1l0-.11-1,0,.37,0c-.13.31-.74-.19-1.44,0-.66,0-1.34.64-2,.49-.32.14.29-.24-.2-.13,0-.16.23-.1.11-.22-.48.07-.79-.17-1.38-.06l0-.12c-.77.22-1.45-.17-2,.05-.79.1-.53-.37-1.36-.13L14,.25c-.36,0-.26.21-.65.13,0-.11-.5-.09-.27-.19-.89-.16-1.8.24-3,0-.25.21-.84.08-1,.24C9,.3,7.89.37,8.55.18c0,0,.16,0,.15,0L8.78.08C8.11-.15,7.56.21,6.9.17c.2,0,.46,0,.28.11H6.57L6.7.16,5.78.1l.13.13C5.46.17,5.3,0,4.8.13c-.23.1.42.17,0,.21S4.11.24,3.64.2A3.35,3.35,0,0,0,2,.53c.15.08-.11.2-.33.39L1.56.84c-.41.42-.5.46-.63.49s-.29,0-.55.59l0-.13c0,.13,0,.26.07.4a1.58,1.58,0,0,1-.29.75c-.08.12-.2.3-.06.88,0-.45.27-.18.23.32L.18,4a5.43,5.43,0,0,1,.11.57C.21,4.42.08,4.52.22,5L0,4.69a3.72,3.72,0,0,0,.47.74,2.43,2.43,0,0,0,.55,1A3.75,3.75,0,0,1,1.58,7a2.83,2.83,0,0,0,.64.39,1.58,1.58,0,0,0,1,.17c-.3.07.47.22.24.32l.39-.07a2,2,0,0,1,.37-.06,1.48,1.48,0,0,1,.69,0l-.06,0c1.14.14,1.94-.2,3,0,0-.14.49-.06.35-.25,1.06-.18,1.93.38,2.31-.19.48,0,.57.13.82.16l-.12,0c.9,0,1.17,0,1.83,0,.34,0,.39-.32,1-.25-.19.1,0,.08.27.08-.14,0-.18.06.11.13a.77.77,0,0,1,.16-.07s0,0,0,0c.38,0,.31-.07.14-.09,0,0,0,0-.06-.07.39.14,1.08,0,1.13.18,1.12,0,1.92-.23,2.86-.3.1.09-.12.17-.39.21l.66,0c0,.13-.38.07-.58.1.79.22,1.63-.22,2.55,0l.19-.1h.06s.2-.13.34-.15,0,.27.45.26a4.41,4.41,0,0,0,1.5-.11c-.25,0-.17-.09-.06-.13s.36.11.54.06l0,.16c-.09-.15.6-.16.68-.22.13.11-.35.1-.41.18l1.38,0c.49-.12-.09-.15.14-.29A4.65,4.65,0,0,1,27,7l-.15-.14a4.39,4.39,0,0,1,1.84,0C34.76,5.77,30,5.35,30,5.35,27.6,5,26.36,5.45,23.53,5.56Z"/></g></g></svg>